<svg width="16" height="16" viewBox="0 0 16 16" fill="none" xmlns="http://www.w3.org/2000/svg">
<path d="M8.6046 3.44911C8.58417 3.06742 8.19409 3.13236 7.81348 3.13236C8.09463 3.20724 8.3606 3.31142 8.6046 3.44911Z" fill="white"/>
<path d="M4.53587 2.49243C3.05831 2.49243 2.37821 4.36264 3.55938 5.30326C3.96204 4.22808 4.76362 3.45608 5.81445 3.15136C5.52699 2.75396 5.06257 2.49243 4.53587 2.49243Z" fill="white"/>
<path d="M1.48326 5.01064C1.54347 5.20386 1.62149 5.38922 1.71417 5.56484L1.22881 6.05048C1.09847 6.18082 1.09847 6.39238 1.22881 6.52299L2.08433 7.37878C2.14664 7.44109 2.232 7.47615 2.32098 7.47615C2.40897 7.47615 2.49377 7.44109 2.55715 7.37878L3.04198 6.89315C3.11473 6.93165 3.19538 6.95525 3.27073 6.98846C3.27073 6.98293 3.27019 6.9772 3.27019 6.97167C3.27019 6.57481 3.31578 6.20044 3.39693 5.84889C2.81157 5.47216 2.42098 4.81822 2.42098 4.0716C2.42098 2.90533 3.36969 1.95635 4.53569 1.95635C5.32523 1.95635 6.00691 2.3959 6.3708 3.03807C6.7593 2.98989 7.12423 2.98989 7.56351 3.07289C7.507 2.90196 7.44051 2.73466 7.35724 2.57786L7.8426 2.09199C7.90592 2.02941 7.94098 1.94432 7.94098 1.85585C7.94098 1.76734 7.90592 1.68228 7.8426 1.61971L6.98755 0.764456C6.92214 0.699015 6.83678 0.666547 6.75144 0.666547C6.66608 0.666547 6.58074 0.699015 6.51581 0.764456L6.0289 1.25032C5.853 1.15714 5.66818 1.07912 5.47448 1.02022V0.333779C5.47448 0.149493 5.32577 0 5.14094 0H3.93097C3.74719 0 3.59689 0.149493 3.59689 0.333779V1.02018C3.4037 1.07909 3.21884 1.1571 3.04241 1.25029L2.55715 0.764962C2.49168 0.699521 2.40634 0.667053 2.32098 0.667053C2.23565 0.667053 2.14981 0.699521 2.08487 0.764692L1.22881 1.61994C1.16651 1.68279 1.13144 1.76758 1.13144 1.85635C1.13144 1.94509 1.16651 2.02992 1.22881 2.09249L1.71417 2.57809C1.62146 2.75402 1.54347 2.93911 1.48434 3.1323H0.798438C0.613612 3.1323 0.464355 3.28203 0.464355 3.46659V4.67659C0.464355 4.8606 0.613612 5.01064 0.798438 5.01064H1.48326Z" fill="white"/>
<path d="M11.9646 11.4852C12.4998 11.1917 12.8673 10.63 12.8673 9.97806C12.8673 9.02672 12.093 8.25293 11.1416 8.25293C10.8071 8.25293 10.4971 8.35293 10.2322 8.51837C10.0735 9.14978 9.82377 9.75376 9.49707 10.2784C10.4232 10.4525 11.273 10.8742 11.9646 11.4852Z" fill="white"/>
<path d="M15.5356 9.32518C15.5356 9.12596 15.3738 8.96466 15.1754 8.96466H14.4351C14.3712 8.756 14.2864 8.556 14.1858 8.36622L14.7099 7.84215C14.778 7.77459 14.8157 7.68298 14.8157 7.58744C14.8157 7.49185 14.778 7.40022 14.7099 7.33245L13.7874 6.40963C13.7172 6.33917 13.6245 6.30383 13.5324 6.30383C13.4403 6.30383 13.3481 6.33917 13.278 6.40963L12.7528 6.93397C12.5633 6.83343 12.3638 6.74918 12.1544 6.68552V5.94521C12.1544 5.74625 11.9936 5.58496 11.7947 5.58496H10.4894C10.402 5.58496 10.325 5.62002 10.2622 5.67188C10.3721 6.07292 10.4323 6.50778 10.4323 6.97166C10.4323 7.26616 10.4093 7.56518 10.3664 7.86252C10.6093 7.77297 10.8679 7.71673 11.1418 7.71673C12.3889 7.71673 13.4036 8.73118 13.4036 9.978C13.4036 10.7749 12.9874 11.4734 12.3628 11.8763C12.8172 12.3747 13.1785 12.9661 13.4136 13.6286C13.4523 13.642 13.4926 13.6517 13.5329 13.6517C13.6251 13.6517 13.7173 13.6166 13.7879 13.5462L14.711 12.6234C14.7786 12.5558 14.8157 12.4642 14.8157 12.3686C14.8157 12.2731 14.7786 12.1815 14.711 12.1137L14.1859 11.5893C14.2864 11.3998 14.3712 11.1997 14.4351 10.9909H15.1754C15.2707 10.9909 15.3634 10.9532 15.4304 10.8851C15.498 10.8178 15.5362 10.7259 15.5362 10.6304L15.5356 9.32518Z" fill="white"/>
<path d="M12.6786 13.9548C12.1189 12.3079 10.6398 11.1752 8.93241 11.021C8.36066 11.6265 7.65278 12.0106 6.85114 12.0106C6.0501 12.0106 5.34168 11.6265 4.77048 11.021C3.06207 11.1752 1.58296 12.3079 1.02322 13.9551L0.713814 14.8658C0.625312 15.1279 0.667692 15.4167 0.828985 15.6415C0.990244 15.8664 1.24995 15.9999 1.52638 15.9999H12.1754C12.4524 15.9999 12.7121 15.8664 12.8734 15.6415C13.0341 15.4167 13.077 15.1279 12.988 14.8658L12.6786 13.9548Z" fill="white"/>
<path d="M4.07422 6.97168C4.07422 9.01445 5.31773 11.2064 6.85072 11.2064C8.38432 11.2064 9.62777 9.01445 9.62777 6.97168C9.6278 2.73727 4.07422 2.72888 4.07422 6.97168Z" fill="white"/>
</svg>
