<svg width="22" height="22" viewBox="0 0 22 22" fill="none" xmlns="http://www.w3.org/2000/svg">
<path fill-rule="evenodd" clip-rule="evenodd" d="M2 4.00611L2.00018 3.99962C2.01218 3.63969 2.10892 3.26822 2.26943 2.94721C2.39761 2.69084 2.57419 2.46489 2.82033 2.3008C3.06021 2.14088 3.42499 2 4 2C4.57502 2 4.9398 2.14088 5.17967 2.3008C5.48866 2.50679 5.69219 2.8208 5.81777 3.14477C5.22162 3.30128 4.72626 3.57709 4.32555 3.93481C3.70429 4.48942 3.3823 5.17607 3.21313 5.72163C3.02059 6.34253 3.19257 6.9476 3.56764 7.37037C3.92761 7.77611 4.45463 8 5 8H9C9.5454 8 10.0724 7.77611 10.4324 7.37037C10.8074 6.9476 10.9794 6.34253 10.7869 5.72163C10.6177 5.17607 10.2957 4.48942 9.6745 3.93481C9.2084 3.51876 8.61431 3.2135 7.88252 3.07789C7.81351 2.77563 7.70182 2.41757 7.51943 2.05279C7.27261 1.55916 6.88669 1.03511 6.28908 0.6367C5.68521 0.23412 4.92499 0 4 0C3.07502 0 2.3148 0.23412 1.71092 0.6367C1.11331 1.03511 0.72739 1.55916 0.48057 2.05279C0.23572 2.5425 0.11827 3.02011 0.06048 3.36685C0.02595 3.57403 0.00127001 3.78516 1.00136e-05 3.99552L0 12C0.00011 12.0906 0.00205005 12.1801 0.00864005 12.3416C0.01708 12.5482 0.0338 12.8399 0.067 13.1886C0.13297 13.8812 0.26604 14.8212 0.53848 15.7747C0.80759 16.7166 1.23337 17.7464 1.92824 18.557C2.64853 19.3974 3.66199 20 5 20V21C5 21.5523 5.44772 22 6 22C6.55229 22 7 21.5523 7 21V20H15V21C15 21.5523 15.4477 22 16 22C16.5523 22 17 21.5523 17 21V20C19.0879 20 20.3006 18.566 20.9601 17.1431C21.6171 15.7257 21.8534 14.0872 21.9426 13.0842C22.048 11.8984 21.0873 11 20 11H2V4.00611ZM2.0581 13C2.11716 13.6197 2.23408 14.4292 2.46152 15.2253C2.69241 16.0334 3.01663 16.7536 3.44676 17.2555C3.85147 17.7276 4.33801 18 5 18H17C17.9628 18 18.6375 17.3981 19.1456 16.302C19.6394 15.2366 19.8536 13.926 19.9419 13H2.0581ZM8.34254 5.42679C8.52126 5.58633 8.65602 5.78564 8.75612 6H5.24388C5.34398 5.78564 5.47874 5.58633 5.65746 5.42679C5.90165 5.2088 6.29876 5 7 5C7.70124 5 8.09836 5.2088 8.34254 5.42679Z" fill="white"/>
</svg>
