<svg width="26" height="22" viewBox="0 0 26 22" fill="none" xmlns="http://www.w3.org/2000/svg">
<path d="M1 1.66669V20.3334M1 16.3334H25M25 20.3334V12.6C25 11.1066 25 10.3598 24.7093 9.78935C24.4537 9.28762 24.0457 8.87962 23.544 8.62402C22.9736 8.33335 22.2268 8.33335 20.7333 8.33335H11.6667V15.9698M6.33333 11H6.34667M7.66667 11C7.66667 11.7364 7.06971 12.3334 6.33333 12.3334C5.59696 12.3334 5 11.7364 5 11C5 10.2636 5.59696 9.66669 6.33333 9.66669C7.06971 9.66669 7.66667 10.2636 7.66667 11Z" stroke="white" stroke-width="2" stroke-linecap="round" stroke-linejoin="round"/>
</svg>
