<svg width="24" height="32" viewBox="0 0 24 32" fill="none" xmlns="http://www.w3.org/2000/svg">
<path fill-rule="evenodd" clip-rule="evenodd" d="M12 15C10.343 15 9 13.657 9 12C9 10.343 10.343 9 12 9C13.657 9 15 10.343 15 12C15 13.657 13.657 15 12 15ZM12 7C9.239 7 7 9.238 7 12C7 14.762 9.239 17 12 17C14.761 17 17 14.762 17 12C17 9.238 14.761 7 12 7ZM12 29C10.337 29.009 2 16.181 2 12C2 6.478 6.477 2 12 2C17.523 2 22 6.478 22 12C22 16.125 13.637 29.009 12 29ZM12 0C5.373 0 0 5.373 0 12C0 17.018 10.005 32.011 12 32C13.964 32.011 24 16.95 24 12C24 5.373 18.627 0 12 0Z" fill="white"/>
</svg>
