<svg width="20" height="20" viewBox="0 0 20 20" fill="none" xmlns="http://www.w3.org/2000/svg">
<path d="M11.8331 14.4377L10.1157 12.7346C9.32636 11.9519 8.93166 11.5605 8.47726 11.4137C8.07756 11.2845 7.64736 11.2845 7.24758 11.4137C6.79321 11.5605 6.39853 11.9519 5.60918 12.7346L1.61029 16.7622M11.8331 14.4377L12.1744 14.0991C12.9804 13.2999 13.3833 12.9003 13.8457 12.7545C14.2523 12.6262 14.6892 12.6312 15.0928 12.7688C15.5516 12.9253 15.9453 13.334 16.7326 14.1515L17.5684 15.0001M11.8331 14.4377L15.7884 18.4628M1.61029 16.7622C1.56836 16.4066 1.56836 15.9466 1.56836 15.3V5.7C1.56836 4.5799 1.56836 4.01984 1.78635 3.59202C1.97809 3.21569 2.28406 2.90973 2.66038 2.71799C3.0882 2.5 3.64825 2.5 4.76836 2.5H8.56836M1.61029 16.7622C1.641 17.0226 1.69419 17.2271 1.78635 17.408C1.97809 17.7843 2.28406 18.0903 2.66038 18.282C3.0882 18.5 3.64825 18.5 4.76836 18.5H14.3684C15.4885 18.5 16.0486 18.5 16.4764 18.282C16.8527 18.0903 17.1587 17.7843 17.3504 17.408C17.5684 16.9802 17.5684 16.4201 17.5684 15.3V11.5M12.5684 3.78571L14.3684 5.5L18.5684 1.5" stroke="white" stroke-width="2" stroke-linecap="round" stroke-linejoin="round"/>
</svg>
